<svg fill="none" height="128" viewBox="0 0 128 128" width="128" xmlns="http://www.w3.org/2000/svg"><path d="m0 0h128v128h-128z" fill="#e55934"/><g fill="#fff"><path d="m108.805 62.456h-3.246-1.324c-1.074 0-1.951-.8489-2.046-1.9182-.713-7.9483-3.854-15.2064-8.6772-21.0232-.6833-.824-.6614-2.0393.0953-2.7964l1.8298-1.8308c.7812-.7816 2.0481-.7816 2.8292 0l1.9779 1.9792c.625.625 1.638.625 2.263 0 .624-.6245.624-1.6367 0-2.2612l-9.0466-9.0512c-.6246-.625-1.6377-.625-2.2624 0-.6241.6245-.6241 1.6367 0 2.2612l1.9809 1.982c.7806.7809.7806 2.0467 0 2.8276l-1.8226 1.8237c-.7596.76-1.9805.7795-2.8046.09-5.8179-4.8679-13.0916-8.0437-21.064-8.7718-1.068-.0975-1.915-.9735-1.915-2.0459v-2.521c0-1.1046.8955-2 2-2h2.7965c.8837 0 1.6-.7163 1.6-1.6 0-.8837-.7163-1.6-1.6-1.6h-12.7912c-.8836 0-1.6.7163-1.6 1.6 0 .8837.7164 1.6 1.6 1.6h2.7965c1.1046 0 2 .8954 2 2v2.5209c0 1.0724-.847 1.9484-1.9151 2.0459-7.9499.7255-15.2053 3.8846-21.0147 8.7274-.8242.6871-2.0431.6664-2.8016-.0925l-1.7773-1.7783c-.7805-.7809-.7805-2.0467 0-2.8276l1.981-1.982c.6241-.6245.6241-1.6367 0-2.2612-.6247-.625-1.6378-.625-2.2624 0l-9.0463 9.0512c-.6241.6245-.6241 1.6367 0 2.2612.6247.625 1.6378.625 2.2624 0l1.9781-1.9792c.7812-.7816 2.0481-.7816 2.8292 0l1.779 1.7799c.7579.7583.7786 1.9759.0927 2.7997-4.8392 5.8125-7.9935 13.0697-8.7181 21.0195-.0974 1.068-.9734 1.9151-2.0459 1.9151h-2.5173c-1.1045 0-2-.8954-2-2v-2.8009c0-.8831-.7159-1.5991-1.5991-1.5991-.8831 0-1.5991.716-1.5991 1.5991v12.8018c0 .8831.716 1.5991 1.5991 1.5991.8832 0 1.5991-.716 1.5991-1.5991v-2.8009c0-1.1046.8955-2 2-2h2.5172c1.0726 0 1.9486.8471 2.0459 1.9152.7252 7.9599 3.886 15.2235 8.7314 21.0385.6865.8238.666 2.0418-.092 2.8003l-1.7974 1.7984c-.7812.7816-2.0484.7815-2.8295-.0003l-1.9766-1.9784c-.6245-.6251-1.6377-.6252-2.2624-.0002-.6241.6245-.6241 1.6365 0 2.261l9.0464 9.0515c.6246.625 1.6377.625 2.2624 0 .6241-.625.6241-1.637 0-2.261l-1.981-1.9824c-.7805-.7809-.7805-2.0467 0-2.8276l1.799-1.8c.7582-.7586 1.9763-.7796 2.8005-.0934 5.8067 4.8342 13.0546 7.9864 20.9954 8.7104 1.0682.097 1.9154.973 1.9154 2.046v2.522c0 1.105-.8954 2-2 2h-2.7965c-.8836 0-1.6.716-1.6 1.6 0 .884.7164 1.6 1.6 1.6h12.7912c.8837 0 1.6-.716 1.6-1.6 0-.884-.7163-1.6-1.6-1.6h-2.7965c-1.1045 0-2-.895-2-2v-2.521c0-1.072.847-1.948 1.9151-2.046 7.9441-.725 15.1961-3.88 21.0036-8.7171.8242-.6865 2.0427-.6656 2.801.0931l1.8066 1.8076c.7805.7809.7805 2.0467 0 2.8276l-1.9809 1.9818c-.6242.625-.6242 1.637 0 2.261.6246.625 1.6377.625 2.2624 0l9.0461-9.0508c.624-.6245.624-1.6367 0-2.2612-.625-.625-1.638-.625-2.262 0l-1.9784 1.9792c-.7812.7816-2.0481.7816-2.8292 0l-1.8059-1.8069c-.758-.7584-.7786-1.9761-.0924-2.8 4.8311-5.8003 7.9869-13.0415 8.7219-20.9759.098-1.0668.974-1.9122 2.045-1.9122h2.578c1.104 0 2 .8954 2 2v2.8009c0 .8831.716 1.5991 1.599 1.5991.883 0 1.599-.716 1.599-1.5991v-12.8018c0-.8831-.716-1.5991-1.599-1.5991-.883 0-1.599.716-1.599 1.5991v4.7977zm-44.8314 36.744c-19.3989 0-35.1806-15.7904-35.1806-35.2s15.7817-35.2 35.1806-35.2 35.1807 15.7904 35.1807 35.2-15.7818 35.2-35.1807 35.2z"/><path d="m108.802 62.456v-2c0-.0009-.001-.0009-.001 0 0 1.1046-.896 2-2 2z"/><path d="m64 56c-4.4112 0-8 3.5888-8 8s3.5888 8 8 8 8-3.5888 8-8-3.5888-8-8-8zm0 12.8c-2.6464 0-4.8-2.1536-4.8-4.8s2.1536-4.8 4.8-4.8 4.8 2.1536 4.8 4.8-2.1536 4.8-4.8 4.8z"/><path d="m63.9956 32c-4.4839 0-7.9956 2.4608-7.9956 5.6 0 2.3638 1.9904 4.3401 4.8876 5.1732.8493.2442 1.5089.9751 1.5089 1.8588v.1689c0 .8831.7159 1.5991 1.5991 1.5991.8832 0 1.5991-.716 1.5991-1.5991v-.1689c0-.8837.6596-1.6145 1.5089-1.8589 2.8972-.8334 4.8876-2.8107 4.8876-5.1731 0-3.1392-3.5117-5.6-7.9956-5.6zm0 8c-2.7457 0-4.7974-1.2672-4.7974-2.4s2.0517-2.4 4.7974-2.4 4.7974 1.2672 4.7974 2.4-2.0517 2.4-4.7974 2.4z"/><path d="m67.1036 85.2268c-.8493-.2443-1.5089-.9751-1.5089-1.8588v-.1689c0-.8832-.7159-1.5991-1.5991-1.5991-.8832 0-1.5991.7159-1.5991 1.5991v.1689c0 .8837-.6596 1.6145-1.5089 1.8589-2.8972.8334-4.8876 2.8107-4.8876 5.1731 0 3.1392 3.5117 5.6 7.9956 5.6s7.9956-2.4608 7.9956-5.6c0-2.3638-1.9904-4.3401-4.8876-5.1732zm-3.108 7.5732c-2.7457 0-4.7974-1.2672-4.7974-2.4s2.0517-2.4 4.7974-2.4 4.7974 1.2672 4.7974 2.4-2.0517 2.4-4.7974 2.4z"/><path d="m42.7677 67.1083c.2437-.849.9742-1.5083 1.8575-1.5083h.1669c.8836 0 1.6-.7163 1.6-1.6 0-.8837-.7164-1.6-1.6-1.6h-.1669c-.8833 0-1.6138-.6593-1.8576-1.5082-.8327-2.8997-2.8092-4.8918-5.1707-4.8918-3.1375 0-5.5969 3.5136-5.5969 8s2.4594 8 5.5969 8c2.3629 0 4.3384-1.9921 5.1708-4.8917zm-5.1708 1.6917c-1.1322 0-2.3987-2.0528-2.3987-4.8s1.2665-4.8 2.3987-4.8 2.3987 2.0528 2.3987 4.8-1.2665 4.8-2.3987 4.8z"/><path d="m85.2244 60.8917c-.2438.849-.9742 1.5083-1.8575 1.5083h-.1669c-.8837 0-1.6.7163-1.6 1.6 0 .8837.7163 1.6 1.6 1.6h.1669c.8833 0 1.6137.6593 1.8575 1.5082.8327 2.8997 2.8092 4.8918 5.1708 4.8918 3.1374 0 5.5969-3.5136 5.5969-8s-2.4595-8-5.5969-8c-2.3629 0-4.3384 1.9921-5.1708 4.8917zm5.1708-1.6917c1.1321 0 2.3986 2.0528 2.3986 4.8s-1.2665 4.8-2.3986 4.8c-1.1322 0-2.3987-2.0528-2.3987-4.8s1.2665-4.8 2.3987-4.8z"/><path d="m52.0853 44.4931c.443-1.9184.0416-3.6736-1.1002-4.816-1.1417-1.1424-2.896-1.544-4.8133-1.1008-1.6759.3872-3.3806 1.3808-4.7974 2.8s-2.4115 3.1232-2.7984 4.8c-.443 1.9184-.04 3.6736 1.1002 4.816.8379.8384 2.0053 1.2784 3.3261 1.2784.4782 0 .9787-.0576 1.4888-.176.77-.1775 1.545-.4865 2.2955-.905.7723-.4307 1.7556-.3793 2.3808.2462l.1204.1206c.6247.625 1.6378.625 2.2624 0 .6242-.6245.6242-1.6367.0001-2.2612l-.1226-.1226c-.6251-.6254-.6771-1.6081-.2471-2.3808.4185-.7519.7272-1.5276.9047-2.2988zm-8.3138 4.48c-.8203.1888-1.4872.1008-1.8326-.248-.3454-.3456-.4349-1.0144-.2462-1.8336.2494-1.0848.9578-2.272 1.9429-3.2576.985-.9856 2.1716-1.6944 3.2558-1.944.2814-.0656.5453-.0976.7836-.0976.4573 0 .8219.1168 1.049.344.3454.3456.4349 1.0144.2462 1.8336-.2494 1.0848-.9578 2.272-1.9429 3.2576-.985.9856-2.1716 1.696-3.2558 1.9456z"/><path d="m83.3891 75.7936c-.7698.1774-1.5448.4858-2.2952.9041-.7726.4308-1.7563.3798-2.3816-.2459l-.1199-.12c-.6247-.625-1.6378-.625-2.2624 0-.6242.6245-.6242 1.6367 0 2.2612l.1217.1218c.6253.6257.6767 1.609.2462 2.3818-.4183.751-.7272 1.5265-.9046 2.297-.443 1.9184-.0416 3.6736 1.1002 4.816.8379.8384 2.0053 1.2768 3.3245 1.2768.4782 0 .9787-.0576 1.4888-.176 1.6759-.3872 3.3806-1.3808 4.7974-2.8s2.4115-3.1232 2.7984-4.8c.443-1.9184.04-3.6736-1.1002-4.816-1.1401-1.1424-2.8944-1.544-4.8133-1.1008zm2.8001 5.1984c-.2495 1.0848-.9579 2.272-1.943 3.2576-.985.9856-2.1716 1.6944-3.2558 1.944-.8219.1904-1.4888.0992-1.8326-.2464-.3454-.3456-.4349-1.0144-.2462-1.8336.2494-1.0848.9578-2.272 1.9429-3.2576.985-.9856 2.1716-1.6944 3.2558-1.944.2814-.0656.5453-.0976.7836-.0976.4573 0 .8219.1168 1.049.344.3454.3456.435 1.0144.2463 1.8336z"/><path d="m51.5489 76.3302c-.6248-.6242-1.6373-.6239-2.2616.0008l-.1209.121c-.6254.6257-1.609.6772-2.3819.2466-.7503-.418-1.525-.7266-2.2947-.905-1.9174-.4416-3.6716-.0416-4.8134 1.1008s-1.5431 2.8992-1.1002 4.816c.387 1.6768 1.3801 3.3824 2.7985 4.8s3.1215 2.4128 4.7973 2.8c.5102.1184 1.0091.176 1.4888.176 1.3193 0 2.4866-.4384 3.3246-1.2768 1.1418-1.1424 1.5447-2.8992 1.1018-4.8176-.1774-.7705-.4857-1.5462-.9041-2.2972-.4304-.7727-.3795-1.7561.2458-2.3818l.1208-.1208c.6245-.6248.6241-1.6376-.0008-2.262zm-2.8279 9.6186c-.3438.3456-1.0106.4352-1.8326.2464-1.0842-.2496-2.2707-.9584-3.2558-1.944-.985-.9856-1.6934-2.1728-1.9429-3.2576-.1887-.8192-.0991-1.488.2463-1.8336.227-.2272.5916-.344 1.049-.344.2383 0 .5021.032.7836.0976 1.0842.2496 2.2707.9584 3.2558 1.944.985.9856 1.6934 2.1728 1.9429 3.2576.1903.8176.0991 1.4864-.2463 1.8336z"/><path d="m81.7084 38.5763c-1.9157-.4432-3.67-.0416-4.8133 1.1008-1.1418 1.1424-1.5448 2.8992-1.1018 4.8176.1774.7705.4863 1.546.9046 2.297.4305.7728.3791 1.7562-.2462 2.3818l-.1217.1218c-.6242.6245-.6242 1.6367 0 2.2612.6246.625 1.6377.625 2.2624 0l.1204-.1206c.6252-.6255 1.6085-.6769 2.3808-.2462.7505.4185 1.5256.7275 2.2955.905.5101.1184 1.009.176 1.4888.176 1.3193 0 2.4866-.4384 3.3245-1.2768 1.1418-1.1424 1.5432-2.8992 1.1002-4.816-.3869-1.6768-1.38-3.3824-2.7984-4.8s-3.1199-2.4144-4.7958-2.8016zm4.2329 10.1536c-.3454.3472-1.0122.4352-1.8326.248-1.0842-.2496-2.2708-.9584-3.2558-1.944-.9851-.9856-1.6935-2.1728-1.9429-3.2576-.1887-.8192-.0992-1.488.2478-1.8336.2271-.2272.5917-.344 1.049-.344.2383 0 .5022.032.7836.0976 1.0842.2496 2.2708.9584 3.2558 1.944.9851.9856 1.6935 2.1728 1.943 3.2576.1871.8176.0975 1.4864-.2479 1.832z"/></g></svg>