<svg height="700pt" preserveAspectRatio="xMidYMid meet" viewBox="0 0 700 700" width="700pt" xmlns="http://www.w3.org/2000/svg"><g transform="matrix(.1 0 0 -.1 0 700)"><path d="m2972 6980c-36-22-62-72-56-105 17-89 45-103 213-107 147-2 184-13 223-63 21-27 23-41 26-166 3-133 3-138-23-179-29-46-68-67-142-75-90-10-193-25-213-30-8-2-31-7-50-10-265-45-622-183-890-345-111-67-272-180-330-231-19-17-46-36-60-41-36-14-94-12-127 5-39 21-203 192-204 214 0 10-2 26-4 36-8 44 18 87 108 178 52 52 98 108 104 124 30 91-61 179-148 142-38-16-702-674-725-718-20-40-17-71 9-110 26-38 77-60 122-51 20 3 63 38 130 104 94 93 143 124 178 113 7-2 25-6 41-10 33-7 174-139 207-192 24-39 27-99 6-139-8-16-38-58-67-94-134-167-296-442-388-660-70-165-127-364-177-620-1-8-6-42-9-75-4-33-9-80-12-105-7-56-44-114-86-136-48-25-276-23-321 3-58 34-72 73-74 208 0 66-2 130-2 142-1 12-15 38-32 58-27 31-37 35-78 35-26 0-56-7-69-16-52-36-52-35-52-566 0-471 1-494 20-525 46-75 146-74 196 2 13 20 17 55 18 163 2 118 5 143 22 172 36 62 69 73 213 73 98 0 135-4 159-17 45-23 79-81 86-146 14-123 18-149 37-250 54-276 147-538 280-790 59-110 194-316 269-410 66-82 81-112 82-159 1-53-13-74-111-174-139-142-189-142-326-3-97 99-122 116-168 116-74 0-126-63-112-136 5-32 57-88 359-390 305-305 357-353 389-359 66-13 122 24 137 88 11 51-6 81-107 183-50 50-94 104-100 120-13 37-9 84 10 120 23 43 179 192 211 200 65 16 111 0 203-73 261-206 555-363 863-463 83-26 151-47 185-55 17-4 37-8 45-10 70-17 164-35 205-40 28-3 62-8 77-11s47-7 72-9c64-6 109-28 137-66 22-31 24-46 27-166 4-152-7-188-66-225-32-20-51-22-171-25-154-2-185-11-210-62-30-61-9-128 50-158 38-20 987-18 1034 1 101 43 72 214-38 217-17 0-85 2-149 3-110 2-119 4-153 30-49 38-57 63-60 191-3 204 27 243 203 264 53 7 120 16 147 21 28 5 66 12 85 15s62 13 95 21c33 9 67 17 75 19 89 20 358 119 470 173 180 86 362 199 533 330 154 119 193 116 333-23 69-69 93-100 100-130 18-71 2-103-102-209-52-53-99-108-104-121-19-50 7-117 55-140 37-17 63-19 97-6 36 13 708 690 725 729 25 60-18 139-81 149-59 9-83-4-182-100-108-104-109-105-157-112-53-9-93 14-185 104-91 90-112 126-106 185 4 45 14 62 110 188 231 305 392 638 484 1003 16 61 31 128 34 150 4 22 11 66 17 97 5 32 14 94 19 139 7 64 15 89 36 116 40 52 76 63 211 63 96 0 124-4 158-20 68-33 79-63 81-221 1-99 6-143 17-165 42-80 163-79 202 1 23 50 23 991-1 1040-43 92-192 76-210-22-4-20-8-88-9-152-2-129-9-156-54-194-38-32-86-39-216-34-170 7-203 40-220 217-3 36-8 74-10 85s-7 38-10 60-17 92-31 155c-85 379-268 763-519 1089-81 104-99 151-81 210 15 49 185 219 228 228 79 17 107 4 205-93 49-48 97-92 108-100 34-22 71-23 112-3 46 23 68 65 60 120-5 37-33 68-359 393-272 272-361 355-386 361-90 19-166-70-133-157 5-13 49-64 98-113 101-102 118-134 109-199-6-39-18-56-101-140-149-151-173-151-377 2-156 116-257 181-400 254-130 67-297 141-343 153-5 1-23 8-40 14-16 7-37 14-45 16s-55 15-105 29c-94 27-249 61-325 71-25 3-56 8-70 10-14 3-50 7-80 10-70 8-125 39-147 84-26 55-25 274 2 320 40 68 59 74 220 78 80 1 155 8 166 13 28 15 59 69 59 103 0 15-7 42-16 58-30 58-36 59-571 59-472 0-489-1-521-20zm768-924c100-12 146-19 165-22 10-2 37-6 60-10 22-3 99-21 171-40 997-257 1752-1096 1899-2106 21-146 26-231 26-391 0-130-2-166-16-282-13-108-17-136-41-248-128-609-510-1185-1029-1553-90-64-153-104-161-104-4 0-15-6-23-14-18-15-205-111-291-149-131-58-409-141-540-161-209-33-290-40-455-40-209 0-368 17-560 58-302 65-587 187-865 371-546 361-937 927-1081 1560-26 115-26 111-33 169-4 27-9 52-10 55-9 14-20 229-20 366 0 197 17 358 53 515 5 25 12 56 15 70 12 65 68 237 111 345 152 381 378 703 688 978 59 53 115 97 232 185 107 80 349 210 505 272 133 53 334 113 470 139 109 22 140 26 275 37 44 3 81 8 83 9 5 5 324-3 372-9z"/><path d="m3380 5826c-3-2-25-7-50-11-129-19-283-110-349-207-62-89-77-171-51-267 30-113 157-233 293-277 116-37 148-70 161-163 10-78 57-121 124-115 66 5 99 43 109 122 10 84 30 105 146 152 105 42 163 78 221 137 155 158 121 388-79 522-109 74-234 108-402 110-65 1-121 0-123-3zm274-247c80-24 117-43 153-78 55-52 56-94 2-149-125-128-471-134-610-10-30 27-49 59-49 85 0 59 101 132 218 159 78 17 214 14 286-7z"/><path d="m2215 5355c-170-36-332-146-449-305-215-292-156-627 123-685 104-22 194-7 326 54 101 47 148 43 225-19 103-83 244 57 160 160-56 69-66 129-33 194 84 162 97 320 38 443-64 131-220 194-390 158zm170-245c46-38 15-201-55-294-105-138-248-226-363-223-79 3-92 18-92 110 1 59 6 82 29 127 71 139 185 239 324 286 65 22 126 20 157-6z"/><path d="m4608 5359c-64-10-143-55-185-105-94-115-97-287-9-476 46-97 43-136-15-207-53-67-37-156 34-186 45-19 82-11 144 32 67 46 101 47 198 2 196-89 355-84 475 17 125 106 140 322 37 519-12 22-43 68-70 103-42 55-67 81-147 156-30 28-128 85-186 109-97 39-185 51-276 36zm162-242c125-44 259-166 318-288 21-44 40-119 36-146-1-7-2-20-3-28 0-9-12-27-26-40-64-65-240-3-372 131-80 82-135 189-139 273-3 53 0 62 23 85 21 21 35 26 77 26 28 0 67-6 86-13z"/><path d="m1532 4078c-230-35-391-325-360-654 22-244 140-433 303-489 197-67 390 68 475 330 25 78 63 108 154 120 83 11 128 78 103 154-16 46-52 70-117 78-48 5-60 11-96 48-22 23-44 56-47 73s-16 52-28 79c-86 186-231 284-387 261zm101-254c70-65 108-166 113-300 8-207-89-395-191-370-55 14-118 111-142 221-10 43-9 202 0 255 5 25 20 68 33 96 55 116 127 154 187 98z"/><path d="m3429 4078c-290-38-510-283-510-568 0-106 15-173 60-265 49-99 111-170 199-228 137-92 297-121 456-83 304 72 497 374 437 686-15 75-80 204-136 267-89 101-240 180-365 190-30 2-62 5-70 6-8 2-40 0-71-5zm214-261c77-35 132-89 170-166 28-58 32-75 32-151s-3-92-33-152c-37-77-90-128-172-167-46-22-69-26-140-26-70 1-94 5-140 27-81 38-134 89-171 164-62 125-43 277 47 383 97 113 270 151 407 88z"/><path d="m5379 4079c-85-13-169-67-233-153-31-40-71-114-81-146-33-111-75-154-159-164-81-9-119-46-119-116 0-40 25-85 55-101 10-6 40-13 66-16 48-5 87-24 109-52 7-9 24-47 39-86 91-240 246-354 434-320 110 20 233 139 289 283 47 118 65 311 40 433-6 30-12 65-15 78-9 44-52 139-84 187-88 127-215 192-341 173zm90-245c97-57 154-278 117-451-25-118-81-210-139-229-69-22-155 80-185 221-17 76-8 239 16 307 50 139 119 194 191 152z"/><path d="m1833 2628c-113-42-192-159-197-291-5-115 29-224 109-348 156-243 460-394 667-333 114 35 199 124 224 237 20 89-1 212-56 331-15 35-30 76-33 93-5 34 20 100 46 122 9 7 22 31 27 52 20 73-31 138-110 141-32 1-49-5-80-31-72-58-111-60-216-11-38 17-93 38-124 46-74 20-193 16-257-8zm282-252c166-82 307-282 292-413-9-80-59-104-163-76-215 56-420 324-369 483 19 60 126 62 240 6z"/><path d="m4940 2647c-3-3-19-7-36-10-18-3-69-22-114-42s-94-38-108-40c-37-4-82 14-120 47-33 28-42 31-94 30-40-1-85-37-94-75-7-30-8-39-5-70 0-8 17-34 36-58 49-63 52-109 12-191-48-100-65-169-65-260 0-147 54-240 173-299 312-153 816 223 829 621 6 160-67 280-203 330-42 16-199 28-211 17zm133-236c104-40 41-257-116-404-155-144-351-176-373-61-21 111 94 306 235 399 89 60 197 87 254 66z"/><path d="m3453 2206c-41-19-63-53-70-113-9-84-32-109-138-149-153-58-248-134-297-239-82-176 11-370 224-469 104-48 196-66 335-66 289 0 528 146 568 349 26 130-36 259-170 351-45 30-84 49-165 80-89 33-114 63-125 145-7 54-25 89-52 103-35 19-78 21-110 8zm192-476c118-30 205-96 205-155s-92-126-212-157c-178-45-402 7-469 109-23 35-24 57-2 95 41 68 191 126 329 127 40 1 105-8 149-19z"/></g></svg>